{
    "accessors" : [
        {
            "bufferView" : 0, 
            "componentType" : 5123, 
            "count" : 5760, 
            "max" : [
                963
            ], 
            "min" : [
                0
            ], 
            "type" : "SCALAR"
        }, 
        {
            "bufferView" : 1, 
            "componentType" : 5126, 
            "count" : 964, 
            "max" : [
                10.089500427246094, 
                1.1818509101867676, 
                0.8006458282470703
            ], 
            "min" : [
                -1.5723003149032593, 
                -0.8528168201446533, 
                -1.4733102321624756
            ], 
            "type" : "VEC3"
        }, 
        {
            "bufferView" : 2, 
            "componentType" : 5126, 
            "count" : 964, 
            "max" : [
                1.0, 
                1.0, 
                1.0
            ], 
            "min" : [
                -1.0, 
                -1.0, 
                -1.0
            ], 
            "type" : "VEC3"
        }, 
        {
            "bufferView" : 3, 
            "componentType" : 5121, 
            "count" : 513, 
            "max" : [
                94
            ], 
            "min" : [
                0
            ], 
            "type" : "SCALAR"
        }, 
        {
            "bufferView" : 4, 
            "componentType" : 5126, 
            "count" : 95, 
            "max" : [
                18.16185760498047, 
                12.785401344299316, 
                -1.1060504913330078
            ], 
            "min" : [
                -8.624263763427734, 
                -21.603923797607422, 
                -27.303340911865234
            ], 
            "type" : "VEC3"
        }, 
        {
            "bufferView" : 5, 
            "componentType" : 5126, 
            "count" : 95, 
            "max" : [
                0.9950254559516907, 
                0.9920957088470459, 
                0.9969786405563354
            ], 
            "min" : [
                -0.9924619197845459, 
                -0.011688589118421078, 
                -0.9962767362594604
            ], 
            "type" : "VEC3"
        }, 
        {
            "bufferView" : 6, 
            "componentType" : 5123, 
            "count" : 5760, 
            "max" : [
                963
            ], 
            "min" : [
                0
            ], 
            "type" : "SCALAR"
        }, 
        {
            "bufferView" : 7, 
            "componentType" : 5126, 
            "count" : 964, 
            "max" : [
                11.206537246704102, 
                2.1919071674346924, 
                0.09802210330963135
            ], 
            "min" : [
                -2.573544979095459, 
                -1.9610424041748047, 
                -4.294215202331543
            ], 
            "type" : "VEC3"
        }, 
        {
            "bufferView" : 8, 
            "componentType" : 5126, 
            "count" : 964, 
            "max" : [
                1.0, 
                1.0, 
                1.0
            ], 
            "min" : [
                -1.0, 
                -1.0, 
                -1.0
            ], 
            "type" : "VEC3"
        }
    ], 
    "asset" : {
        "generator" : "Khronos Blender glTF 2.0 exporter", 
        "version" : "2.0"
    }, 
    "bufferViews" : [
        {
            "buffer" : 0, 
            "byteLength" : 11520, 
            "byteOffset" : 0, 
            "target" : 34963
        }, 
        {
            "buffer" : 0, 
            "byteLength" : 11568, 
            "byteOffset" : 11520, 
            "target" : 34962
        }, 
        {
            "buffer" : 0, 
            "byteLength" : 11568, 
            "byteOffset" : 23088, 
            "target" : 34962
        }, 
        {
            "buffer" : 0, 
            "byteLength" : 513, 
            "byteOffset" : 34656, 
            "target" : 34963
        }, 
        {
            "buffer" : 0, 
            "byteLength" : 1140, 
            "byteOffset" : 35172, 
            "target" : 34962
        }, 
        {
            "buffer" : 0, 
            "byteLength" : 1140, 
            "byteOffset" : 36312, 
            "target" : 34962
        }, 
        {
            "buffer" : 0, 
            "byteLength" : 11520, 
            "byteOffset" : 37452, 
            "target" : 34963
        }, 
        {
            "buffer" : 0, 
            "byteLength" : 11568, 
            "byteOffset" : 48972, 
            "target" : 34962
        }, 
        {
            "buffer" : 0, 
            "byteLength" : 11568, 
            "byteOffset" : 60540, 
            "target" : 34962
        }
    ], 
    "buffers" : [
        {
            "byteLength" : 72108, 
            "uri" : "Ghost.bin"
        }
    ], 
    "materials" : [
        {
            "name" : "Material.001", 
            "pbrMetallicRoughness" : {
                "baseColorFactor" : [
                    0.640000066757203, 
                    0.09891494063906281, 
                    0.10523346819331447, 
                    1.0
                ], 
                "metallicFactor" : 0.0
            }
        }, 
        {
            "name" : "Material.004", 
            "pbrMetallicRoughness" : {
                "baseColorFactor" : [
                    0.800000011920929, 
                    0.800000011920929, 
                    0.800000011920929, 
                    1.0
                ], 
                "metallicFactor" : 0.0
            }
        }, 
        {
            "name" : "Material.005", 
            "pbrMetallicRoughness" : {
                "baseColorFactor" : [
                    0.0, 
                    0.0, 
                    0.0, 
                    1.0
                ], 
                "metallicFactor" : 0.0
            }
        }
    ], 
    "meshes" : [
        {
            "name" : "Sphere.005", 
            "primitives" : [
                {
                    "attributes" : {
                        "NORMAL" : 2, 
                        "POSITION" : 1
                    }, 
                    "indices" : 0, 
                    "material" : 2
                }, 
                {
                    "attributes" : {
                        "NORMAL" : 5, 
                        "POSITION" : 4
                    }, 
                    "indices" : 3, 
                    "material" : 0
                }, 
                {
                    "attributes" : {
                        "NORMAL" : 8, 
                        "POSITION" : 7
                    }, 
                    "indices" : 6, 
                    "material" : 1
                }
            ]
        }
    ], 
    "nodes" : [
        {
            "mesh" : 0, 
            "name" : "GHOST", 
            "scale" : [
                0.07642588019371033, 
                0.07642588019371033, 
                0.07642588019371033
            ], 
            "translation" : [
                -0.43155211210250854, 
                -0.5896007418632507, 
                2.0395994186401367
            ]
        }
    ], 
    "scene" : 0, 
    "scenes" : [
        {
            "name" : "Scene", 
            "nodes" : [
                0
            ]
        }
    ]
}
